<svg id="SvgjsSvg1006" width="341" height="398" xmlns="http://www.w3.org/2000/svg" version="1.1" xmlns:xlink="http://www.w3.org/1999/xlink" xmlns:svgjs="http://svgjs.com/svgjs"><defs id="SvgjsDefs1007"></defs><g id="SvgjsG1008" transform="translate(25,25)"><path id="SvgjsPath1009" d="M 0 0L 291 0L 291 348L 0 348Z" stroke="rgba(50,50,50,1)" stroke-width="2" fill-opacity="1" fill="#ffffff"></path><g id="SvgjsG1010"><text id="SvgjsText1011" font-family="微软雅黑" text-anchor="middle" font-size="13px" width="271px" fill="#323232" font-weight="400" align="middle" anchor="middle" family="微软雅黑" size="13px" weight="400" font-style="" opacity="1" y="164.05" transform="rotate(0)"></text></g></g><g id="SvgjsG1012" transform="translate(48,42)"><path id="SvgjsPath1013" d="M 0 4Q 0 0 4 0L 241 0Q 245 0 245 4L 245 233Q 245 237 241 237L 4 237Q 0 237 0 233Z" stroke="rgba(50,50,50,1)" stroke-width="2" fill-opacity="1" fill="#ffffff"></path><g id="SvgjsG1014"><text id="SvgjsText1015" font-family="微软雅黑" text-anchor="middle" font-size="24px" width="225px" fill="#323232" font-weight="400" align="middle" anchor="middle" family="微软雅黑" size="24px" weight="400" font-style="" opacity="1" y="97.9" transform="rotate(0)"><tspan id="SvgjsTspan1016" dy="30" x="122.5"><tspan id="SvgjsTspan1017" style="text-decoration:;">存储体</tspan></tspan></text></g></g><g id="SvgjsG1018" transform="translate(48,309)"><path id="SvgjsPath1019" d="M 0 4Q 0 0 4 0L 104 0Q 108 0 108 4L 108 45Q 108 49 104 49L 4 49Q 0 49 0 45Z" stroke="rgba(50,50,50,1)" stroke-width="2" fill-opacity="1" fill="#ffffff"></path><g id="SvgjsG1020"><text id="SvgjsText1021" font-family="&quot;Comic Sans MS&quot;" text-anchor="middle" font-size="18px" width="88px" fill="#323232" font-weight="400" align="middle" anchor="middle" family="&quot;Comic Sans MS&quot;" size="18px" weight="400" font-style="" opacity="1" y="10.8" transform="rotate(0)"><tspan id="SvgjsTspan1022" dy="22" x="54"><tspan id="SvgjsTspan1023" style="text-decoration:;">MAR</tspan></tspan></text></g></g><g id="SvgjsG1024" transform="translate(185,309)"><path id="SvgjsPath1025" d="M 0 4Q 0 0 4 0L 104 0Q 108 0 108 4L 108 45Q 108 49 104 49L 4 49Q 0 49 0 45Z" stroke="rgba(50,50,50,1)" stroke-width="2" fill-opacity="1" fill="#ffffff"></path><g id="SvgjsG1026"><text id="SvgjsText1027" font-family="&quot;Comic Sans MS&quot;" text-anchor="middle" font-size="18px" width="88px" fill="#323232" font-weight="400" align="middle" anchor="middle" family="&quot;Comic Sans MS&quot;" size="18px" weight="400" font-style="" opacity="1" y="10.8" transform="rotate(0)"><tspan id="SvgjsTspan1028" dy="22" x="54"><tspan id="SvgjsTspan1029" style="text-decoration:;">MDR</tspan></tspan></text></g></g></svg>