<svg id="SvgjsSvg1006" width="340" height="275" xmlns="http://www.w3.org/2000/svg" version="1.1" xmlns:xlink="http://www.w3.org/1999/xlink" xmlns:svgjs="http://svgjs.com/svgjs"><defs id="SvgjsDefs1007"></defs><g id="SvgjsG1008" transform="translate(25,25)"><path id="SvgjsPath1009" d="M 0 4Q 0 0 4 0L 285 0Q 289 0 289 4L 289 221Q 289 225 285 225L 4 225Q 0 225 0 221Z" stroke="rgba(50,50,50,1)" stroke-width="2" fill-opacity="1" fill="#ffffff"></path><g id="SvgjsG1010"><text id="SvgjsText1011" font-family="微软雅黑" text-anchor="middle" font-size="13px" width="269px" fill="#323232" font-weight="400" align="middle" anchor="middle" family="微软雅黑" size="13px" weight="400" font-style="" opacity="1" y="102.55" transform="rotate(0)"></text></g></g><g id="SvgjsG1012" transform="translate(56,48)"><path id="SvgjsPath1013" d="M 0 4Q 0 0 4 0L 95 0Q 99 0 99 4L 99 157Q 99 161 95 161L 4 161Q 0 161 0 157Z" stroke="rgba(50,50,50,1)" stroke-width="2" fill-opacity="1" fill="#ffffff"></path><g id="SvgjsG1014"><text id="SvgjsText1015" font-family="&quot;Comic Sans MS&quot;" text-anchor="middle" font-size="20px" width="79px" fill="#323232" font-weight="700" align="middle" anchor="middle" family="&quot;Comic Sans MS&quot;" size="20px" weight="700" font-style="" opacity="1" y="65" transform="rotate(0)"><tspan id="SvgjsTspan1016" dy="25" x="49.5"><tspan id="SvgjsTspan1017" style="text-decoration:;">CU</tspan></tspan></text></g></g><g id="SvgjsG1018" transform="translate(180,48)"><path id="SvgjsPath1019" d="M 0 4Q 0 0 4 0L 96 0Q 100 0 100 4L 100 66Q 100 70 96 70L 4 70Q 0 70 0 66Z" stroke="rgba(50,50,50,1)" stroke-width="2" fill-opacity="1" fill="#ffffff"></path><g id="SvgjsG1020"><text id="SvgjsText1021" font-family="&quot;Comic Sans MS&quot;" text-anchor="middle" font-size="18px" width="80px" fill="#323232" font-weight="400" align="middle" anchor="middle" family="&quot;Comic Sans MS&quot;" size="18px" weight="400" font-style="" opacity="1" y="21.3" transform="rotate(0)"><tspan id="SvgjsTspan1022" dy="22" x="50"><tspan id="SvgjsTspan1023" style="text-decoration:;">IR</tspan></tspan></text></g></g><g id="SvgjsG1024" transform="translate(180,139)"><path id="SvgjsPath1025" d="M 0 4Q 0 0 4 0L 96 0Q 100 0 100 4L 100 66Q 100 70 96 70L 4 70Q 0 70 0 66Z" stroke="rgba(50,50,50,1)" stroke-width="2" fill-opacity="1" fill="#ffffff"></path><g id="SvgjsG1026"><text id="SvgjsText1027" font-family="&quot;Comic Sans MS&quot;" text-anchor="middle" font-size="18px" width="80px" fill="#323232" font-weight="400" align="middle" anchor="middle" family="&quot;Comic Sans MS&quot;" size="18px" weight="400" font-style="" opacity="1" y="21.3" transform="rotate(0)"><tspan id="SvgjsTspan1028" dy="22" x="50"><tspan id="SvgjsTspan1029" style="text-decoration:;">PC</tspan></tspan></text></g></g></svg>