<svg id="SvgjsSvg1030" width="340" height="406" xmlns="http://www.w3.org/2000/svg" version="1.1" xmlns:xlink="http://www.w3.org/1999/xlink" xmlns:svgjs="http://svgjs.com/svgjs"><defs id="SvgjsDefs1031"><marker id="SvgjsMarker1056" markerWidth="16" markerHeight="12" refX="16" refY="6" viewBox="0 0 16 12" orient="auto" markerUnits="userSpaceOnUse" stroke-dasharray="0,0"><path id="SvgjsPath1057" d="M0,2 L14,6 L0,11 L0,2" fill="#323232" stroke="#323232" stroke-width="2"></path></marker><marker id="SvgjsMarker1060" markerWidth="16" markerHeight="12" refX="16" refY="6" viewBox="0 0 16 12" orient="auto" markerUnits="userSpaceOnUse" stroke-dasharray="0,0"><path id="SvgjsPath1061" d="M0,2 L14,6 L0,11 L0,2" fill="#323232" stroke="#323232" stroke-width="2"></path></marker></defs><g id="SvgjsG1032" transform="translate(25,25)"><path id="SvgjsPath1033" d="M 0 4Q 0 0 4 0L 286 0Q 290 0 290 4L 290 352Q 290 356 286 356L 4 356Q 0 356 0 352Z" stroke="rgba(50,50,50,1)" stroke-width="2" fill-opacity="1" fill="#ffffff"></path><g id="SvgjsG1034"><text id="SvgjsText1035" font-family="微软雅黑" text-anchor="middle" font-size="13px" width="270px" fill="#323232" font-weight="400" align="middle" anchor="middle" family="微软雅黑" size="13px" weight="400" font-style="" opacity="1" y="168.05" transform="rotate(0)"></text></g></g><g id="SvgjsG1036" transform="translate(56,51)"><path id="SvgjsPath1037" d="M 0 0L 80 0L 80 47L 0 47Z" stroke="rgba(50,50,50,1)" stroke-width="2" fill-opacity="1" fill="#ffffff"></path><g id="SvgjsG1038"><text id="SvgjsText1039" font-family="&quot;Comic Sans MS&quot;" text-anchor="middle" font-size="16px" width="60px" fill="#323232" font-weight="700" align="middle" anchor="middle" family="&quot;Comic Sans MS&quot;" size="16px" weight="700" font-style="" opacity="1" y="11.1" transform="rotate(0)"><tspan id="SvgjsTspan1040" dy="20" x="40"><tspan id="SvgjsTspan1041" style="text-decoration:;">ACC</tspan></tspan></text></g></g><g id="SvgjsG1042" transform="translate(209,51)"><path id="SvgjsPath1043" d="M 0 0L 80 0L 80 47L 0 47Z" stroke="rgba(50,50,50,1)" stroke-width="2" fill-opacity="1" fill="#ffffff"></path><g id="SvgjsG1044"><text id="SvgjsText1045" font-family="&quot;Comic Sans MS&quot;" text-anchor="middle" font-size="16px" width="60px" fill="#323232" font-weight="700" align="middle" anchor="middle" family="&quot;Comic Sans MS&quot;" size="16px" weight="700" font-style="" opacity="1" y="11.1" transform="rotate(0)"><tspan id="SvgjsTspan1046" dy="20" x="40"><tspan id="SvgjsTspan1047" style="text-decoration:;">MQ</tspan></tspan></text></g></g><g id="SvgjsG1048" transform="translate(56,267)"><path id="SvgjsPath1049" d="M 0 0L 80 0L 80 47L 0 47Z" stroke="rgba(50,50,50,1)" stroke-width="2" fill-opacity="1" fill="#ffffff"></path><g id="SvgjsG1050"><text id="SvgjsText1051" font-family="&quot;Comic Sans MS&quot;" text-anchor="middle" font-size="16px" width="60px" fill="#323232" font-weight="700" align="middle" anchor="middle" family="&quot;Comic Sans MS&quot;" size="16px" weight="700" font-style="" opacity="1" y="11.1" transform="rotate(0)"><tspan id="SvgjsTspan1052" dy="20" x="40"><tspan id="SvgjsTspan1053" style="text-decoration:;">X</tspan></tspan></text></g></g><g id="SvgjsG1054"><path id="SvgjsPath1055" d="M134 64L171.5 64L171.5 64L209 64" stroke="#323232" stroke-width="2" fill="none" marker-end="url(#SvgjsMarker1056)"></path></g><g id="SvgjsG1058"><path id="SvgjsPath1059" d="M209 74.5L172.5 74.5L172.5 74.5L136 74.5" stroke="#323232" stroke-width="2" fill="none" marker-end="url(#SvgjsMarker1060)"></path></g><g id="SvgjsG1062" transform="translate(36.5,153)"><path id="SvgjsPath1063" d="M 0 0L 119 0L 99.16666666666667 57L 19.833333333333332 57L 0 0Z" stroke="rgba(50,50,50,1)" stroke-width="2" fill-opacity="1" fill="#ffffff"></path><g id="SvgjsG1064"><text id="SvgjsText1065" font-family="&quot;Comic Sans MS&quot;" text-anchor="middle" font-size="16px" width="96px" fill="#323232" font-weight="700" align="middle" anchor="middle" family="&quot;Comic Sans MS&quot;" size="16px" weight="700" font-style="" opacity="1" y="16.1" transform="rotate(0)"><tspan id="SvgjsTspan1066" dy="20" x="59.9"><tspan id="SvgjsTspan1067" style="text-decoration:;">ALU</tspan></tspan></text></g></g><g id="SvgjsG1068" transform="translate(63,98)"><path id="SvgjsPath1069" d="M 15 0L 30 15L 20.1 15L 20.1 51L 9.9 51L 9.9 15L 0 15L 15 0Z" stroke="rgba(50,50,50,1)" stroke-width="2" fill-opacity="1" fill="#ffffff"></path><g id="SvgjsG1070"><text id="SvgjsText1071" font-family="微软雅黑" text-anchor="middle" font-size="13px" width="42px" fill="#323232" font-weight="400" align="middle" anchor="middle" family="微软雅黑" size="13px" weight="400" font-style="" opacity="1" y="18.1" transform="rotate(0)"></text></g></g><g id="SvgjsG1072" transform="matrix(-1,1.2246467991473532e-16,-1.2246467991473532e-16,-1,130,153)"><path id="SvgjsPath1073" d="M 15 0L 30 15L 20.1 15L 20.1 51L 9.9 51L 9.9 15L 0 15L 15 0Z" stroke="rgba(50,50,50,1)" stroke-width="2" fill-opacity="1" fill="#ffffff"></path><g id="SvgjsG1074"><text id="SvgjsText1075" font-family="微软雅黑" text-anchor="middle" font-size="13px" width="42px" fill="#323232" font-weight="400" align="middle" anchor="middle" family="微软雅黑" size="13px" weight="400" font-style="" opacity="1" y="18.1" transform="rotate(0)"></text></g></g><g id="SvgjsG1076" transform="translate(63,210)"><path id="SvgjsPath1077" d="M 15 0L 30 15L 20.1 15L 20.1 51L 9.9 51L 9.9 15L 0 15L 15 0Z" stroke="rgba(50,50,50,1)" stroke-width="2" fill-opacity="1" fill="#ffffff"></path><g id="SvgjsG1078"><text id="SvgjsText1079" font-family="微软雅黑" text-anchor="middle" font-size="13px" width="42px" fill="#323232" font-weight="400" align="middle" anchor="middle" family="微软雅黑" size="13px" weight="400" font-style="" opacity="1" y="18.1" transform="rotate(0)"></text></g></g><g id="SvgjsG1080" transform="matrix(-1,1.2246467991473532e-16,-1.2246467991473532e-16,-1,130,267)"><path id="SvgjsPath1081" d="M 15 0L 30 15L 20.1 15L 20.1 51L 9.9 51L 9.9 15L 0 15L 15 0Z" stroke="rgba(50,50,50,1)" stroke-width="2" fill-opacity="1" fill="#ffffff"></path><g id="SvgjsG1082"><text id="SvgjsText1083" font-family="微软雅黑" text-anchor="middle" font-size="13px" width="42px" fill="#323232" font-weight="400" align="middle" anchor="middle" family="微软雅黑" size="13px" weight="400" font-style="" opacity="1" y="18.1" transform="rotate(0)"></text></g></g></svg>